<svg xmlns="http://www.w3.org/2000/svg" xmlns:xlink="http://www.w3.org/1999/xlink" width="500" zoomAndPan="magnify" viewBox="0 0 375 374.999991" height="500" preserveAspectRatio="xMidYMid meet" version="1.0"><defs><clipPath id="018447e24b"><path d="M 125.484375 56.25 L 249.234375 56.25 L 249.234375 318.75 L 125.484375 318.75 Z M 125.484375 56.25 " clip-rule="nonzero"/></clipPath></defs><rect x="-37.5" width="450" fill="#ffffff" y="-37.499999" height="449.999989" fill-opacity="1"/><rect x="-37.5" width="450" fill="#563440" y="-37.499999" height="449.999989" fill-opacity="1"/><g clip-path="url(#018447e24b)"><path fill="#ffffff" d="M 220.683594 99.785156 L 249.234375 99.785156 L 249.234375 56.644531 L 212.777344 56.644531 L 212.777344 56.808594 C 164.847656 58.570312 154.96875 85.480469 154.144531 113.929688 L 154.035156 113.929688 L 154.035156 143.863281 L 125.484375 143.863281 L 125.484375 187.058594 L 154.035156 187.058594 L 154.035156 318.355469 L 205.257812 318.355469 L 205.257812 187.058594 L 241.988281 187.058594 L 249.234375 143.863281 L 205.257812 143.863281 L 205.257812 117.066406 C 205.257812 107.546875 211.625 99.785156 220.683594 99.785156 Z M 220.683594 99.785156 " fill-opacity="1" fill-rule="nonzero"/></g></svg>