<svg xmlns="http://www.w3.org/2000/svg" xmlns:xlink="http://www.w3.org/1999/xlink" width="500" zoomAndPan="magnify" viewBox="0 0 375 374.999991" height="500" preserveAspectRatio="xMidYMid meet" version="1.0"><defs><clipPath id="4a5ebbbfdd"><path d="M 62.667969 62.824219 L 312.417969 62.824219 L 312.417969 311.824219 L 62.667969 311.824219 Z M 62.667969 62.824219 " clip-rule="nonzero"/></clipPath></defs><rect x="-37.5" width="450" fill="#ffffff" y="-37.499999" height="449.999989" fill-opacity="1"/><rect x="-37.5" width="450" fill="#d7dedc" y="-37.499999" height="449.999989" fill-opacity="1"/><g clip-path="url(#4a5ebbbfdd)"><path fill="#ffffff" d="M 265.554688 62.886719 L 109.441406 62.886719 C 83.703125 62.886719 62.765625 83.824219 62.765625 109.5625 L 62.765625 265.675781 C 62.765625 291.410156 83.703125 312.347656 109.441406 312.347656 L 265.554688 312.347656 C 291.292969 312.347656 312.230469 291.410156 312.230469 265.675781 L 312.230469 109.5625 C 312.226562 83.824219 291.289062 62.886719 265.554688 62.886719 Z M 109.441406 77.628906 L 265.554688 77.628906 C 283.164062 77.628906 297.492188 91.953125 297.492188 109.5625 L 297.492188 180.246094 L 254.648438 180.246094 C 253.378906 168.605469 249.132812 157.84375 242.695312 148.734375 C 242.730469 148.734375 242.765625 148.738281 242.800781 148.738281 C 257.699219 148.738281 269.820312 136.617188 269.820312 121.71875 C 269.820312 106.820312 257.699219 94.695312 242.800781 94.695312 C 227.902344 94.695312 215.777344 106.820312 215.777344 121.71875 C 215.777344 123.347656 215.949219 124.9375 216.226562 126.484375 C 207.503906 122.367188 197.765625 120.054688 187.496094 120.050781 C 152.734375 120.058594 124.03125 146.453125 120.347656 180.246094 L 77.503906 180.246094 L 77.503906 109.5625 C 77.503906 91.953125 91.828125 77.628906 109.441406 77.628906 Z M 240.316406 187.617188 C 240.316406 216.742188 216.621094 240.4375 187.496094 240.4375 C 158.371094 240.4375 134.675781 216.742188 134.675781 187.617188 C 134.675781 158.496094 158.371094 134.796875 187.496094 134.792969 C 216.621094 134.796875 240.316406 158.496094 240.316406 187.617188 Z M 230.519531 121.71875 C 230.519531 114.945312 236.027344 109.433594 242.800781 109.433594 C 249.570312 109.433594 255.082031 114.945312 255.082031 121.71875 C 255.082031 128.492188 249.570312 134 242.800781 134 C 236.027344 134 230.519531 128.492188 230.519531 121.71875 Z M 265.554688 297.605469 L 109.441406 297.605469 C 91.832031 297.605469 77.503906 283.28125 77.503906 265.671875 L 77.503906 194.988281 L 120.347656 194.988281 C 124.03125 228.785156 152.734375 255.175781 187.496094 255.175781 C 222.257812 255.175781 250.960938 228.785156 254.644531 194.988281 L 297.488281 194.988281 L 297.488281 265.671875 C 297.488281 283.28125 283.164062 297.605469 265.554688 297.605469 Z M 265.554688 297.605469 " fill-opacity="1" fill-rule="nonzero"/></g><path fill="#ffffff" d="M 155.363281 266.066406 C 147.601562 262.886719 140.363281 258.566406 133.839844 253.222656 C 125.675781 246.539062 118.910156 238.507812 113.722656 229.359375 C 111.71875 225.820312 107.21875 224.574219 103.675781 226.582031 C 100.136719 228.589844 98.894531 233.089844 100.902344 236.628906 C 106.992188 247.367188 114.929688 256.789062 124.503906 264.628906 C 132.15625 270.894531 140.660156 275.96875 149.777344 279.703125 C 150.691406 280.078125 151.636719 280.257812 152.570312 280.257812 C 155.46875 280.257812 158.222656 278.53125 159.390625 275.679688 C 160.933594 271.917969 159.128906 267.613281 155.363281 266.066406 Z M 155.363281 266.066406 " fill-opacity="1" fill-rule="nonzero"/></svg>